# AST/ASF file generated using VICON BodyLanguage
# -----------------------------------------------
:version 1.10
:name VICON
:units
  mass 1.0
  length 0.45
  angle deg
:documentation
   .ast/.asf automatically generated from VICON data using
   VICON BodyBuilder and BodyLanguage model FoxedUp or BRILLIANT.MOD
:root
   order TX TY TZ RX RY RZ
   axis XYZ
   position 0 0 0  
   orientation 0 0 0 
:bonedata
  begin
     id 1 
     name lhipjoint
     direction 0.682418 -0.694059 0.22932 
     length 2.25561 
     axis 0 0 0  XYZ
  end
  begin
     id 2 
     name lfemur
     direction 0.34202 -0.939693 0  
     length 6.96448  
     axis 0 0 20  XYZ
    dof rx ry rz
    limits (-160.0 20.0)
           (-70.0 70.0)
           (-60.0 70.0)
  end
  begin
     id 3 
     name ltibia
     direction 0.34202 -0.939693 0   
     length 6.88553   
     axis 0 0 20   XYZ
    dof rx
    limits (-10.0 170.0)
  end
  begin
     id 4 
     name lfoot
     direction 0.0723587 -0.198804 0.977364   
     length 1.88518   
     axis -90 7.62852e-016 20   XYZ
    dof rx rz
    limits (-45.0 90.0)
           (-70.0 20.0)
  end
  begin
     id 5 
     name ltoes
     direction 1.53558e-011 -4.21962e-011 1   
     length 0.952124   
     axis -90 7.62852e-016 20   XYZ
    dof rx
    limits (-90.0 20.0)
  end
  begin
     id 6 
     name rhipjoint
     direction -0.657603 -0.71533 0.236348   
     length 2.18854  
     axis 0 0 0  XYZ 
  end
  begin
     id 7 
     name rfemur
     direction -0.34202 -0.939693 0   
     length 6.86686   
     axis 0 0 -20   XYZ
    dof rx ry rz
    limits (-160.0 20.0)
           (-70.0 70.0)
           (-70.0 60.0)
  end
  begin
     id 8 
     name rtibia
     direction -0.34202 -0.939693 0   
     length 6.59503   
     axis 0 0 -20   XYZ
    dof rx
    limits (-10.0 170.0)
 end
 begin
     id 9 
     name rfoot
     direction -0.101977 -0.280179 0.954516   
     length 1.93723  
     axis -90 -7.62852e-016 -20   XYZ
    dof rx rz
    limits (-45.0 90.0)
           (-20.0 70.0)
  end
  begin
     id 10 
     name rtoes
     direction -1.53564e-011 -4.21897e-011 1   
     length 0.970315   
     axis -90 -7.62852e-016 -20   XYZ
    dof rx
    limits (-90.0 20.0)
  end
  begin
     id 11 
     name lowerback
     direction -0.0339559 0.999421 -0.00235966   
     length 1.88543   
     axis 0 0 0   XYZ
    dof rx ry rz
    limits (-20.0 45.0)
           (-30.0 30.0)
           (-30.0 30.0)
  end
  begin
     id 12 
     name upperback
     direction 0.00401003 0.999739 0.0224689   
     length 1.8856   
     axis 0 0 0   XYZ
    dof rx ry rz
    limits (-20.0 45.0)
           (-30.0 30.0)
           (-30.0 30.0)
  end
  begin
     id 13 
     name thorax
     direction 0.0198619 0.999546 0.0226536   
     length 1.88352   
     axis 0 0 0   XYZ
    dof rx ry rz
    limits (-20.0 45.0)
           (-30.0 30.0)
           (-30.0 30.0)
  end
  begin
     id 14 
     name lowerneck
     direction -0.0461848 0.998632 0.0245198   
     length 1.34895   
     axis 0 0 0   XYZ
    dof rx ry rz
    limits (-20.0 45.0)
           (-30.0 30.0)
           (-30.0 30.0)
  end
  begin
     id 15 
     name upperneck
     direction -0.0180627 0.994724 -0.100984   
     length 1.35214   
     axis 0 0 0   XYZ
    dof rx ry rz
    limits (-20.0 45.0)
           (-30.0 30.0)
           (-30.0 30.0)
  end
  begin
     id 16
     name head
     direction -0.00374772 0.999293 -0.037403  
     length 1.3568  
     axis 0 0 0   XYZ
    dof rx ry rz
    limits (-20.0 45.0)
           (-30.0 30.0)
           (-30.0 30.0)
  end
  begin
     id 17 
     name lclavicle
     direction 0.971773 0.191119 0.138311  
     length 2.84954  
     axis 0 0 0   XYZ
    dof ry rz
    limits (-20.0 10.0)
           (0.0 20.0)
  end
  begin
     id 18 
     name lhumerus
     direction 1 -4.4897e-011 -2.43761e-027   
     length 4.40919   
     axis 180 -30 -90   XYZ
    dof rx ry rz
    limits (-60.0 90.0)
           (-90.0 90.0)
           (-90.0 90.0)
  end
  begin
     id 19
     name lradius
     direction 1 -4.4896e-011 -9.1621e-027   
     length 3.03857   
     axis 180 -30 -90   XYZ
    dof rx
    limits (-10.0 170.0)
  end
  begin
     id 20
     name lwrist
     direction 1 -4.4896e-011 -1.41363e-026   
     length 1.51928   
     axis 1.07133e-014 90 90   XYZ
    dof ry
    limits (-180.0 0.0)
 end
  begin
     id 21 
     name lhand
     direction 1 -4.48978e-011 -2.82725e-026   
     length 0.523208   
     axis 1.80403e-014 90 90   XYZ
    dof rx rz
    limits (-90.0 90.0)
           (-45.0 45.0)
  end
  begin
     id 22 
     name lfingers
     direction 1 -4.48977e-011 -5.6545e-026   
     length 0.421824   
     axis 3.60806e-014 90 90   XYZ
    dof rx
    limits (0.0 90.0)
  end
  begin
     id 23
     name lthumb
     direction 0.707107 -6.34962e-011 0.707107   
     length 0.605657   
     axis -90 45 2.85299e-015   XYZ
    dof rx rz
    limits (-45.0 45.0)
           (-45.0 45.0)
  end
  begin
     id 24 
     name rclavicle
     direction -0.957247 0.24311 0.156766   
     length 3.12406  
     axis 0 0 0   XYZ 
    dof ry rz
    limits (-10.0 20.0)
           (-20.0 0.0)
  end
  begin
     id 25 
     name rhumerus
     direction -1 -4.48964e-011 -1.70632e-027  
     length 4.61969   
     axis 180 30 90   XYZ
    dof rx ry rz
    limits (-90.0 60.0)
           (-90.0 90.0)
           (-90.0 90.0)
  end
  begin
     id 26 
     name rradius
     direction -1 -4.48966e-011 -6.60395e-027   
     length 3.09382   
     axis 180 30 90   XYZ
    dof rx
    limits (-10.0 170.0)
  end
  begin
     id 27 
     name rwrist
     direction -1 -4.48963e-011 -1.41363e-026   
     length 1.54691   
     axis 1.07133e-014 -90 -90   XYZ
    dof ry
    limits (-180.0 0.0)
  end
  begin
     id 28
     name rhand
     direction -1 -4.49013e-011 -2.82725e-026   
     length 0.500896   
     axis 1.80403e-014 -90 -90   XYZ
    dof rx rz
    limits (-90.0 90.0)
           (-45.0 45.0)
  end
  begin
     id 29
     name rfingers
     direction -1 -4.48902e-011 -5.6545e-026   
     length 0.403835   
     axis 3.60806e-014 -90 -90   XYZ
    dof rx
    limits (0.0 90.0)
  end
  begin
     id 30
     name rthumb
     direction -0.707107 -6.34953e-011 0.707107   
     length 0.579829   
     axis -90 -45 -2.85299e-015   XYZ
    dof rx rz
    limits (-45.0 45.0)
           (-45.0 45.0)
  end
:hierarchy
  begin
    root lhipjoint rhipjoint lowerback
    lhipjoint lfemur
    lfemur ltibia
    ltibia lfoot
    lfoot ltoes
    rhipjoint rfemur
    rfemur rtibia
    rtibia rfoot
    rfoot rtoes
    lowerback upperback
    upperback thorax
    thorax lowerneck lclavicle rclavicle
    lowerneck upperneck
    upperneck head
    lclavicle lhumerus
    lhumerus lradius
    lradius lwrist
    lwrist lhand lthumb
    lhand lfingers
    rclavicle rhumerus
    rhumerus rradius
    rradius rwrist
    rwrist rhand rthumb
    rhand rfingers
  end

#!OML:ASF E:\madness\Project 1\Capture day 1\Session 1\Female1.ASF
:FULLY-SPECIFIED
:DEGREES
466
root 31.6302 16.039 1.7167 -351.923 -70.2553 362.795
lowerback -1.91584 -0.636865 -4.39698
upperback -3.6618 -0.857182 1.62936
thorax -2.61466 -0.307773 4.15434
lowerneck 2.90515 12.2006 6.25922
upperneck 1.76939 16.8171 -19.0522
head 2.23889 8.29771 -6.29689
rclavicle 3.08613e-014 -1.55052e-014
rhumerus -77.1323 12.4602 -57.2346
rradius 74.9839
rwrist -0.411683
rhand -7.04366 -42.682
rfingers 7.12502
rthumb 18.8288 -71.7907
lclavicle 3.08613e-014 -1.55052e-014
lhumerus -56.978 -29.5756 59.095
lradius 113.834
lwrist -14.0736
lhand -6.99999 -17.0462
lfingers 7.12502
lthumb 18.8708 12.0585
rfemur -14.6914 2.31705 19.907
rtibia 28.4363
rfoot -19.0405 -32.3474
rtoes -10.8557
lfemur -30.4927 -14.7266 -16.2307
ltibia 33.9508
lfoot -10.4827 8.19013
ltoes 3.0656
467
root 31.6101 16.0346 1.72933 -352.095 -69.6931 363.03
lowerback -1.93729 -0.505653 -4.32769
upperback -3.65532 -0.682987 1.48206
thorax -2.61557 -0.224262 3.96153
lowerneck 3.01027 12.8636 6.84565
upperneck 2.18085 17.8346 -19.3301
head 2.55488 8.78925 -6.381
rclavicle -2.00524e-014 -7.55382e-015
rhumerus -77.4016 11.6114 -57.0495
rradius 74.9299
rwrist -0.147718
rhand -7.31128 -41.7903
rfingers 7.12502
rthumb 18.5714 -70.9238
lclavicle -2.00524e-014 -7.55382e-015
lhumerus -56.0873 -30.0346 58.8149
lradius 113.949
lwrist -13.8167
lhand -6.08685 -16.9369
lfingers 7.12502
lthumb 19.7489 12.0798
rfemur -14.4748 2.2458 19.8485
rtibia 28.2935
rfoot -19.2198 -32.6859
rtoes -10.7603
lfemur -30.5496 -14.8085 -16.3853
ltibia 33.9797
lfoot -10.0333 7.71816
ltoes 4.76678
468
root 31.5965 16.0307 1.74377 -352.092 -69.1079 363.17
lowerback -2.00464 -0.357524 -4.23964
upperback -3.62658 -0.482958 1.38522
thorax -2.56858 -0.129134 3.81012
lowerneck 2.77953 13.5545 6.79606
upperneck 2.74544 18.8596 -19.1044
head 2.8705 9.25736 -6.18698
rclavicle -2.78547e-014 -1.98785e-014
rhumerus -77.5597 10.7483 -56.839
rradius 74.918
rwrist -0.10143
rhand -7.2421 -42.2609
rfingers 7.12502
rthumb 18.638 -71.388
lclavicle -2.78547e-014 -1.98785e-014
lhumerus -55.2597 -30.5842 58.6168
lradius 114.135
lwrist -13.7164
lhand -6.08903 -17
lfingers 7.12502
lthumb 19.7468 12.017
rfemur -14.4047 2.11637 19.8094
rtibia 28.1816
rfoot -19.1592 -33.0762
rtoes -11.2885
lfemur -30.7425 -14.7806 -16.5144
ltibia 33.9938
lfoot -9.99105 7.1175
ltoes 5.75291
469
root 31.5836 16.0294 1.75434 -352.051 -68.402 363.332
lowerback -2.12893 -0.216113 -4.19808
upperback -3.62031 -0.29028 1.29666
thorax -2.51106 -0.0363984 3.69382
lowerneck 2.93499 14.1868 6.6598
upperneck 2.90958 19.7414 -18.8776
head 2.9739 9.69603 -6.0316
rclavicle 3.93966e-014 -6.75868e-015
rhumerus -77.7071 9.93074 -56.6659
rradius 74.892
rwrist -0.254457
rhand -6.98154 -43.0906
rfingers 7.12502
rthumb 18.8886 -72.1935
lclavicle 3.93966e-014 -6.75868e-015
lhumerus -54.3015 -31.232 58.4258
lradius 114.203
lwrist -13.6411
lhand -6.55834 -16.8521
lfingers 7.12502
lthumb 19.2955 12.2106
rfemur -14.3762 1.98581 19.8043
rtibia 28.0538
rfoot -19.0685 -33.6406
rtoes -11.9982
lfemur -31.0155 -14.8186 -16.6163
ltibia 34.001
lfoot -10.1407 6.47173
ltoes 6.84377
470
root 31.5635 16.0291 1.76216 -352.124 -67.6978 363.483
lowerback -2.23119 -0.107845 -4.21128
upperback -3.57819 -0.141309 1.20323
thorax -2.42407 0.0348198 3.60389
lowerneck 3.42659 14.6942 7.03885
upperneck 2.7281 20.4562 -19.1825
head 3.00627 10.0869 -6.15093
rclavicle -3.23522e-014 -8.34896e-015
rhumerus -77.7877 9.16504 -56.5668
rradius 74.8304
rwrist -0.201851
rhand -7.00022 -43.1981
rfingers 7.12502
rthumb 18.8706 -72.3028
lclavicle -3.23522e-014 -8.34896e-015
lhumerus -53.2595 -31.7984 58.1765
lradius 114.112
lwrist -13.5851
lhand -7.54434 -16.1888
lfingers 7.12502
lthumb 18.3472 12.9659
rfemur -14.1444 1.87839 19.83
rtibia 27.8937
rfoot -19.1765 -34.1765
rtoes -12.1657
lfemur -31.0912 -15.0375 -16.698
ltibia 33.9904
lfoot -10.2636 5.94482
ltoes 8.29311
471
root 31.5455 16.0296 1.77005 -352.07 -67.252 363.482
lowerback -2.29106 -0.0955536 -4.33886
upperback -3.4799 -0.11621 1.32298
thorax -2.29166 0.0480433 3.79965
lowerneck 3.83875 15.3465 7.06405
upperneck 2.28426 21.3184 -19.6091
head 2.97655 10.5532 -6.24493
rclavicle -7.35503e-015 1.98785e-015
rhumerus -77.2647 8.90983 -56.471
rradius 74.6326
rwrist -0.223701
rhand -7.28838 -43.2293
rfingers 7.12502
rthumb 18.5934 -72.3606
lclavicle -7.35503e-015 1.98785e-015
lhumerus -52.576 -31.781 58.1095
lradius 114.086
lwrist -13.6616
lhand -7.27295 -16.4675
lfingers 7.12502
lthumb 18.6083 12.6625
rfemur -13.951 1.86088 19.8702
rtibia 27.7357
rfoot -19.0728 -34.5348
rtoes -12.4568
lfemur -31.1304 -15.1149 -16.7436
ltibia 33.9924
lfoot -10.4193 5.62335
ltoes 7.80175
472
root 31.5197 16.0314 1.77751 -352.112 -66.347 363.622
lowerback -2.51912 -0.258909 -4.55503
upperback -3.2994 -0.314694 1.49062
thorax -1.95697 -0.0550205 4.09309
lowerneck 4.1005 15.977 6.84444
upperneck 1.83969 22.1273 -19.9483
head 2.93049 10.985 -6.27388
rclavicle 7.27055e-014 7.95139e-015
rhumerus -76.517 8.74479 -56.4341
rradius 74.3761
rwrist -0.416387
rhand -7.49041 -43.6546
rfingers 7.12502
rthumb 18.3991 -72.8044
lclavicle 7.27055e-014 7.95139e-015
lhumerus -51.788 -31.6524 58.0062
lradius 114.047
lwrist -13.7039
lhand -7.065 -16.422
lfingers 7.12502
lthumb 18.8083 12.6887
rfemur -13.6633 1.82454 19.9339
rtibia 27.5554
rfoot -19.6024 -35.157
rtoes -11.6086
lfemur -31.2455 -15.2623 -16.8465
ltibia 34.0007
lfoot -10.6498 4.98223
ltoes 7.61815
473
root 31.5089 16.0302 1.79246 -351.886 -65.8061 363.607
lowerback -2.65375 0.0266289 -4.24752
upperback -3.38477 0.0628504 1.21887
thorax -2.0059 0.12614 3.64062
lowerneck 4.89013 16.0326 7.76483
upperneck 1.78826 22.2893 -20.3014
head 2.9538 11.1219 -6.54666
rclavicle 6.04305e-014 -7.95139e-016
rhumerus -76.7935 7.71906 -56.5628
rradius 74.352
rwrist -0.391794
rhand -7.45566 -44.2388
rfingers 7.12502
rthumb 18.4325 -73.3855
lclavicle 6.04305e-014 -7.95139e-016
lhumerus -50.6254 -32.6692 57.5428
lradius 114.02
lwrist -13.6335
lhand -7.03312 -16.3017
lfingers 7.12502
lthumb 18.839 12.806
rfemur -13.6902 1.62823 19.9483
rtibia 27.3927
rfoot -19.1869 -35.5188
rtoes -12.7418
lfemur -31.5293 -15.2502 -16.8995
ltibia 33.9973
lfoot -10.6415 4.62002
ltoes 8.00477
474
root 31.496 16.0292 1.80364 -351.786 -65.3266 363.613
lowerback -2.59252 0.366344 -3.97736
upperback -3.559 0.501408 0.90274
thorax -2.25452 0.342851 3.16348
lowerneck 5.06988 16.286 8.31598
upperneck 2.40411 22.7654 -19.9954
head 3.20018 11.346 -6.47159
rclavicle 2.59041e-014 -5.1684e-015
rhumerus -77.3366 6.63247 -56.7012
rradius 74.3651
rwrist -0.0655699
rhand -7.54834 -44.1215
rfingers 7.12502
rthumb 18.3434 -73.2766
lclavicle 2.59041e-014 -5.1684e-015
lhumerus -49.5243 -33.8844 57.0517
lradius 113.913
lwrist -13.7332
lhand -7.15106 -16.2925
lfingers 7.12502
lthumb 18.7255 12.8262
rfemur -13.6286 1.50659 19.9864
rtibia 27.3248
rfoot -18.9723 -35.898
rtoes -13.5306
lfemur -31.6214 -15.2115 -16.9906
ltibia 33.9668
lfoot -10.6481 4.37194
ltoes 7.70804
475
root 31.4803 16.029 1.81773 -351.952 -64.4605 363.774
lowerback -2.61894 0.424984 -3.94498
upperback -3.533 0.580664 0.825523
thorax -2.2179 0.379884 3.06607
lowerneck 5.10345 16.7491 8.40711
upperneck 2.90879 23.4739 -19.6866
head 3.4194 11.677 -6.30269
rclavicle -2.43387e-014 4.37326e-015
rhumerus -77.3023 5.98812 -56.7421
rradius 74.2261
rwrist 0.309152
rhand -7.52441 -43.9514
rfingers 7.12502
rthumb 18.3664 -73.1043
lclavicle -2.43387e-014 4.37326e-015
lhumerus -48.3868 -34.4808 56.7752
lradius 113.571
lwrist -13.8495
lhand -7.1778 -16.6819
lfingers 7.12502
lthumb 18.6998 12.4393
rfemur -13.402 1.1614 20.0043
rtibia 27.3549
rfoot -19.2842 -36.2671
rtoes -13.2134
lfemur -31.5903 -15.2859 -17.2067
ltibia 33.8668
lfoot -10.6116 3.63971
ltoes 9.39466
